<?xml version="1.0" encoding="UTF-8" standalone="no"?>
<svg
   id="Layer_1"
   data-name="Layer 1"
   viewBox="0 0 24 24"
   version="1.1"
   sodipodi:docname="practice.svg"
   inkscape:version="1.4 (86a8ad7, 2024-10-11)"
   xmlns:inkscape="http://www.inkscape.org/namespaces/inkscape"
   xmlns:sodipodi="http://sodipodi.sourceforge.net/DTD/sodipodi-0.dtd"
   xmlns="http://www.w3.org/2000/svg"
   xmlns:svg="http://www.w3.org/2000/svg">
  <defs
     id="defs1" />
  <sodipodi:namedview
     id="namedview1"
     pagecolor="#ffffff"
     bordercolor="#000000"
     borderopacity="0.25"
     inkscape:showpageshadow="2"
     inkscape:pageopacity="0.0"
     inkscape:pagecheckerboard="0"
     inkscape:deskcolor="#d1d1d1"
     inkscape:zoom="23.041667"
     inkscape:cx="11.9783"
     inkscape:cy="12"
     inkscape:window-width="1024"
     inkscape:window-height="697"
     inkscape:window-x="-8"
     inkscape:window-y="-8"
     inkscape:window-maximized="1"
     inkscape:current-layer="Layer_1" />
  <path
     d="m14.5,12.5c0,1.381-1.119,2.5-2.5,2.5s-2.5-1.119-2.5-2.5,1.119-2.5,2.5-2.5,2.5,1.119,2.5,2.5Zm7.181-1.073l-2.604,3.721c-.374.534-.986.853-1.638.853H6.562c-.652,0-1.265-.318-1.638-.853l-2.604-3.721c-.316-.452-.94-.562-1.393-.246-.453.316-.562.94-.246,1.393l2.604,3.721c.748,1.068,1.973,1.706,3.277,1.706h1.438v5c0,.553.448,1,1,1h6c.552,0,1-.447,1-1v-5h1.438c1.304,0,2.529-.638,3.277-1.706l2.604-3.721c.316-.452.207-1.076-.246-1.393-.452-.315-1.075-.206-1.393.246Zm-12.681-6.427h2v.949c0,.516.623.774.988.409l1.767-1.767c.327-.327.327-.856,0-1.183l-1.767-1.767c-.365-.365-.988-.106-.988.409v.949h-2c-.552,0-1,.447-1,1s.448,1,1,1Zm14.377,1.783c-.186.317-.52.493-.863.493-.172,0-.347-.044-.506-.138l-.137-.081c-.387.359-.854.623-1.372.779v.163c0,.553-.448,1-1,1s-1-.447-1-1v-.163c-.517-.156-.985-.42-1.372-.779l-.137.081c-.159.094-.333.138-.506.138-.343,0-.677-.176-.863-.493-.28-.476-.121-1.089.355-1.369l.134-.079c-.066-.269-.112-.546-.112-.835s.045-.566.112-.835l-.134-.079c-.476-.28-.635-.894-.355-1.369.28-.478.893-.636,1.369-.355l.137.081c.387-.359.854-.623,1.372-.779v-.163c0-.553.448-1,1-1s1,.447,1,1v.163c.517.156.985.42,1.372.779l.137-.081c.476-.279,1.089-.122,1.369.355.28.476.121,1.089-.355,1.369l-.134.079c.066.269.112.546.112.835s-.045.566-.112.835l.134.079c.476.28.635.894.355,1.369Zm-2.377-2.283c0-.827-.673-1.5-1.5-1.5s-1.5.673-1.5,1.5.673,1.5,1.5,1.5,1.5-.673,1.5-1.5ZM2.971,9h1c.552,0,1-.448,1-1v-1H1.971v1c0,.552.448,1,1,1Zm-1.5-3h4c1-.5,1.5-1.541,1.5-2.5,0-1.073-.482-2.072-1.323-2.742C4.807.09,3.715-.153,2.648.094,1.373.389.358,1.404.064,2.68c-.284,1.232.407,2.82,1.407,3.32Z"
     id="path1"
     style="fill:#87deaa" />
  <path
     style="fill:#aa8800;stroke:#aa8800;stroke-width:0.0990938"
     d="M 1.299362,5.8666137 C 0.80983542,5.5561653 0.31276531,4.7891188 0.12976937,4.0617737 0.02243925,3.635174 0.01430334,2.9674915 0.11184821,2.5910536 0.34765555,1.6810434 1.0277667,0.84214966 1.8732075,0.41847727 2.4346457,0.13712603 2.8496183,0.03865972 3.471971,0.03911648 4.1999326,0.03965075 4.7631389,0.20230759 5.3607801,0.58461417 6.0459371,1.0229036 6.6222275,1.8197064 6.8369871,2.6256781 6.9438075,3.026564 6.9653424,3.6931926 6.8839538,4.0795659 6.73889,4.768224 6.275447,5.4571703 5.7111736,5.8230006 L 5.4548974,5.98915 H 3.4737393 1.4925813 Z"
     id="path2" />
  <path
     style="fill:#aa8800;stroke:#aa8800;stroke-width:0.0990938"
     d="M 2.579203,8.8804005 C 2.3301699,8.764439 2.1017811,8.5144831 2.0391329,8.2893308 2.0158869,8.2057865 1.9967585,7.8884266 1.9966254,7.5840867 L 1.9963833,7.0307413 H 3.471971 4.9475587 v 0.5483102 c 0,0.3015706 -0.022292,0.6227141 -0.049538,0.7136521 -0.0718,0.2396457 -0.2810475,0.4702447 -0.5332821,0.5876969 -0.2015029,0.093829 -0.2768381,0.1024766 -0.892768,0.1024766 -0.6159299,0 -0.691265,-0.00865 -0.8927676,-0.1024766 z"
     id="path3" />
  <path
     style="fill:#aa8800;stroke:#aa8800;stroke-width:0.0990938"
     d="M 11.33901,6.447869 C 11.080038,6.3310988 11.023854,6.1706798 11.02367,5.5474986 L 11.023508,4.9973481 9.8842675,4.9833033 C 8.8046269,4.9699933 8.7355971,4.9642159 8.5647765,4.8728689 8.3372065,4.7511751 8.1273313,4.4992995 8.0667522,4.2751797 7.9586589,3.8752756 8.1335865,3.4027381 8.4728955,3.1780517 L 8.6516622,3.0596745 9.8375851,3.0468618 11.023508,3.0340492 V 2.4892255 c 0,-0.6599804 0.04673,-0.7918897 0.328931,-0.9285006 0.334049,-0.1617107 0.36175,-0.1437583 1.46614,0.9501682 0.631919,0.6259306 1.021594,1.0458115 1.073188,1.1563763 0.09685,0.2075463 0.105258,0.4504982 0.0222,0.6415386 -0.0334,0.07681 -0.518326,0.5951373 -1.077624,1.1518381 -0.928552,0.9242409 -1.031685,1.0138451 -1.18702,1.03131 -0.09699,0.010905 -0.230382,-0.00805 -0.31031,-0.044087 z"
     id="path4" />
  <path
     style="fill:#ff0000;stroke:#aa8800;stroke-width:0.0990938"
     d="M 19.188589,8.9268819 C 18.810649,8.7834374 18.534388,8.4021273 18.532598,8.0214487 18.531678,7.8255957 18.526084,7.8168867 18.368897,7.7665848 18.097871,7.6798536 17.567804,7.3898846 17.347834,7.2080206 L 17.140515,7.0366159 16.89915,7.1471161 C 16.324357,7.4102651 15.699214,7.1121 15.533215,6.4956264 c -0.09848,-0.3657149 0.09315,-0.8313726 0.42951,-1.0437058 l 0.169596,-0.1070617 -0.05733,-0.2962993 c -0.07206,-0.3724153 -0.07245,-0.6860428 -0.0014,-1.0911964 L 16.129291,3.639862 16.017615,3.581491 C 15.718751,3.4252645 15.519736,3.07833 15.51719,2.709074 15.51479,2.3673655 15.680183,2.0808923 15.99051,1.8890316 16.268194,1.7173531 16.626549,1.7071807 16.933079,1.8622756 l 0.202518,0.1024682 0.188078,-0.1520847 C 17.611297,1.5800813 17.872439,1.4275551 18.206148,1.29723 l 0.303797,-0.1186436 0.02581,-0.2623285 c 0.03106,-0.31570754 0.175776,-0.55794952 0.436309,-0.73036216 0.245141,-0.16222669 0.681497,-0.19224008 0.930432,-0.0639969 0.345673,0.17807977 0.582131,0.54560782 0.582131,0.90481126 0,0.1018032 0.02364,0.1559986 0.07595,0.1741327 0.271791,0.094218 0.812059,0.3797741 1.042372,0.5509408 l 0.272027,0.2021687 0.163987,-0.08366 c 0.380674,-0.1942051 0.782228,-0.151586 1.09511,0.1162299 0.481574,0.4122086 0.458481,1.1346676 -0.04873,1.5245702 -0.133867,0.1029064 -0.188744,0.1752076 -0.18117,0.2386981 0.05258,0.4408205 0.05889,1.1012989 0.01276,1.3357767 -0.04238,0.2153959 -0.04234,0.2752831 1.66e-4,0.2894526 0.118555,0.039518 0.406821,0.3424614 0.481134,0.5056314 0.04547,0.099831 0.07947,0.2758442 0.08002,0.4142166 0.0028,0.7003265 -0.784006,1.1747544 -1.402669,0.8458081 l -0.20136,-0.1070643 -0.286531,0.216875 c -0.29901,0.2263195 -0.552649,0.3668402 -0.891226,0.4937546 -0.199661,0.074842 -0.200561,0.076105 -0.225336,0.3161551 -0.05029,0.4872915 -0.428702,0.8659998 -0.902703,0.9034173 -0.131646,0.010392 -0.297688,-0.00575 -0.379837,-0.036931 z m 0.651445,-2.9533775 c 0.461028,-0.1085138 0.857031,-0.4276865 1.050931,-0.847035 0.07519,-0.1626089 0.09276,-0.282822 0.09276,-0.6346069 0,-0.4114751 -0.0077,-0.4481515 -0.14791,-0.7067726 C 20.668251,3.4760686 20.495539,3.3079941 20.168379,3.1355765 19.96534,3.0285717 19.897618,3.0163382 19.508137,3.0163082 c -0.386416,-2.97e-5 -0.460838,0.013148 -0.678836,0.1202039 -0.423306,0.2078799 -0.71604,0.5973016 -0.817104,1.0869873 -0.13022,0.6309532 0.207196,1.3218667 0.790519,1.6187164 0.371547,0.1890779 0.64484,0.2236674 1.037318,0.1312886 z"
     id="path5" />
  <path
     style="fill:#ff0000;stroke:#aa8800;stroke-width:0.0990938"
     d="M 1.2629493,5.8700492 C 0.80352919,5.5584359 0.28231179,4.7525216 0.10497203,4.0795659 -0.01035168,3.6419443 -0.00119248,2.8853423 0.12441119,2.4737793 0.40080585,1.5681227 1.0634921,0.79596363 1.9291554,0.37089931 2.4939239,0.09358255 2.7785238,0.0295415 3.4502712,0.02861583 4.118799,0.0276946 4.4609155,0.09914213 4.9726311,0.3465452 5.891181,0.79064349 6.6113602,1.6646774 6.8601,2.6372413 6.9864047,3.131088 6.977243,3.8845949 6.8396657,4.3178282 6.6411718,4.9428898 6.2146081,5.5177596 5.6859319,5.8726879 L 5.4478133,6.0325496 3.4725503,6.030772 1.4972875,6.0289948 Z"
     id="path6" />
  <path
     style="fill:#ff0000;stroke:#aa8800;stroke-width:0.0990938"
     d="M 2.8643761,8.9895383 C 2.756962,8.9719076 2.6104882,8.9259371 2.5388788,8.8873815 2.3640433,8.7932476 2.0990852,8.5131508 2.0423961,8.3625316 2.0171211,8.2953779 1.9836305,7.9584882 1.9679724,7.6138878 L 1.9395032,6.9873417 h 1.5324837 1.5324837 l -0.026878,0.62232 C 4.9628092,7.9519377 4.9293114,8.2888274 4.9031528,8.3583055 4.8394697,8.5274494 4.5744074,8.7972844 4.3666342,8.9044846 4.2290145,8.9754892 4.0933444,8.994256 3.6288403,9.006541 3.3157991,9.0148202 2.9717902,9.007169 2.8643761,8.9895383 Z"
     id="path7" />
  <path
     style="fill:#ff0000;stroke:#aa8800;stroke-width:0.0990938"
     d="M 11.273601,6.4420083 C 11.075542,6.3345425 11.020348,6.1651872 10.992703,5.5801029 L 10.967535,5.0474467 9.8128816,5.0071443 8.6582277,4.9668419 8.4772993,4.8452634 C 8.1841901,4.6483029 8.0557892,4.424404 8.036098,4.0759196 8.0152585,3.7071116 8.1188534,3.4662049 8.407575,3.212062 L 8.6053487,3.0379746 9.0440848,3.0378419 c 0.2413048,-7.3e-5 0.7729127,-0.012809 1.1813512,-0.028303 l 0.742615,-0.028171 0.02292,-0.5308081 c 0.02566,-0.5941681 0.06994,-0.7285777 0.288499,-0.8757029 0.204546,-0.1376929 0.386269,-0.1270276 0.616365,0.036174 0.25706,0.1823265 1.819034,1.7547068 1.970579,1.9837076 0.169876,0.2566999 0.170592,0.590217 0.0017,0.8115892 -0.179828,0.2357663 -1.388639,1.4688418 -1.770788,1.8063325 -0.30515,0.2694901 -0.353842,0.2971226 -0.520796,0.2955472 -0.101295,-9.556e-4 -0.237635,-0.030746 -0.302977,-0.0662 z"
     id="path8" />
  <path
     style="fill:#ff0000;stroke:#aa8800;stroke-width:0.0990938"
     d="M 11.435805,14.912506 C 10.44178,14.669782 9.6939528,13.832556 9.5472528,12.798187 9.3881081,11.676071 10.115461,10.531978 11.232241,10.147779 c 0.414106,-0.142462 1.121411,-0.142462 1.535518,0 1.292009,0.444482 2.007986,1.849612 1.58129,3.103338 -0.227869,0.669531 -0.663208,1.172582 -1.264058,1.46067 -0.190959,0.09156 -0.45069,0.187758 -0.577182,0.213778 -0.295282,0.06074 -0.794681,0.05466 -1.072004,-0.01306 z"
     id="path9" />
  <path
     style="fill:#ff0000;stroke:#aa8800;stroke-width:0.0990938"
     d="M 8.754292,23.938278 C 8.4979993,23.869355 8.2591294,23.681356 8.140487,23.455191 8.0528583,23.288148 8.0503398,23.218066 8.0388125,20.625678 L 8.0269917,17.96745 H 7.0713408 c -1.0589711,0 -1.3805872,-0.04386 -1.9611654,-0.267432 C 4.6501094,17.52285 4.0756774,17.132547 3.7084097,16.747574 3.4300172,16.455761 0.78450519,12.736463 0.61817309,12.403042 0.44085947,12.047609 0.52069952,11.626609 0.82238035,11.32625 1.1954964,10.954769 1.7358925,10.922351 2.1080636,11.249121 c 0.083989,0.07374 0.7408551,0.975933 1.4597024,2.004866 0.7188472,1.028933 1.3757205,1.956491 1.4597188,2.06124 0.1965309,0.245082 0.5983178,0.50376 0.9522566,0.613081 0.2722976,0.0841 0.4157759,0.08616 6.0169526,0.08616 5.150483,0 5.76214,-0.0072 5.973729,-0.06994 0.31636,-0.09386 0.58903,-0.237363 0.804714,-0.423499 0.10137,-0.08748 0.781951,-1.015908 1.576291,-2.150323 0.768843,-1.098003 1.464344,-2.054711 1.545556,-2.126016 0.367056,-0.322279 0.909732,-0.287717 1.280635,0.08156 0.305114,0.303777 0.381633,0.721134 0.199245,1.08674 -0.03735,0.07486 -0.69463,1.031282 -1.460634,2.125384 -1.518121,2.16837 -1.786438,2.485679 -2.420351,2.86228 -0.766242,0.455215 -1.27163,0.566796 -2.56722,0.566796 h -0.955651 l -0.01182,2.658228 c -0.01156,2.599417 -0.01383,2.662068 -0.102442,2.831826 -0.121239,0.232252 -0.397852,0.436918 -0.669142,0.4951 -0.338348,0.07256 -6.1604052,0.0596 -6.435311,-0.01433 z"
     id="path10" />
</svg>
